<svg
            xmlns="http://www.w3.org/2000/svg"
            fill="currentColor"
            className="w-4 h-4 mr-3"
            viewBox="0 0 6.35 6.35"
          >
            <path
              d="M3.172.53a.265.266 0 0 0-.262.268v2.127a.265.266 0 0 0 .53 0V.798A.265.266 0 0 0 3.172.53zm1.544.532a.265.266 0 0 0-.026 0 .265.266 0 0 0-.147.47c.459.391.749.973.749 1.626 0 1.18-.944 2.131-2.116 2.131A2.12 2.12 0 0 1 1.06 3.16c0-.65.286-1.228.74-1.62a.265.266 0 1 0-.344-.404A2.667 2.667 0 0 0 .53 3.158a2.66 2.66 0 0 0 2.647 2.663 2.657 2.657 0 0 0 2.645-2.663c0-.812-.363-1.542-.936-2.03a.265.266 0 0 0-.17-.066z"
              data-original="#000000"
            ></path>
          </svg>